<svg xmlns="http://www.w3.org/2000/svg" viewBox="0 0 1200 700" role="img" aria-label="Agent loop placeholder">
  <rect width="1200" height="700" fill="#ffffff"/>
  <circle cx="600" cy="350" r="210" fill="#f8fbff" stroke="#dbe7f3" stroke-width="4"/>
  <path d="M600 140 C760 150, 875 245, 890 350" fill="none" stroke="#1d4ed8" stroke-width="10" stroke-linecap="round"/>
  <path d="M890 350 C870 505, 745 610, 600 610" fill="none" stroke="#06b6d4" stroke-width="10" stroke-linecap="round"/>
  <path d="M600 610 C430 595, 300 495, 300 350" fill="none" stroke="#7c3aed" stroke-width="10" stroke-linecap="round"/>
  <path d="M300 350 C315 215, 450 145, 600 140" fill="none" stroke="#10b981" stroke-width="10" stroke-linecap="round"/>
  <g fill="#ffffff" stroke="#bfd5ee" stroke-width="4" font-family="Inter, Arial, sans-serif" font-size="26" font-weight="800">
    <rect x="500" y="82" width="200" height="90" rx="8"/><text x="545" y="137" fill="#172033">Goal</text>
    <rect x="825" y="305" width="200" height="90" rx="8"/><text x="870" y="360" fill="#172033">Tools</text>
    <rect x="500" y="600" width="200" height="90" rx="8"/><text x="535" y="655" fill="#172033">Observe</text>
    <rect x="175" y="305" width="200" height="90" rx="8"/><text x="220" y="360" fill="#172033">Revise</text>
  </g>
  <circle cx="600" cy="350" r="78" fill="#172033"/>
  <text x="548" y="360" font-family="Inter, Arial, sans-serif" font-size="30" font-weight="900" fill="#ffffff">Agent</text>
</svg>
