<svg xmlns="http://www.w3.org/2000/svg" viewBox="0 0 1200 700" role="img" aria-label="AI evolution map placeholder">
  <defs>
    <linearGradient id="g" x1="0" x2="1" y1="0" y2="1">
      <stop offset="0" stop-color="#1d4ed8"/>
      <stop offset="0.55" stop-color="#06b6d4"/>
      <stop offset="1" stop-color="#7c3aed"/>
    </linearGradient>
    <filter id="shadow" x="-20%" y="-20%" width="140%" height="140%">
      <feDropShadow dx="0" dy="18" stdDeviation="18" flood-color="#1d4ed8" flood-opacity="0.16"/>
    </filter>
  </defs>
  <rect width="1200" height="700" fill="#ffffff"/>
  <path d="M120 420 C260 210, 400 510, 545 310 S840 230, 1020 160" fill="none" stroke="url(#g)" stroke-width="10" stroke-linecap="round"/>
  <g filter="url(#shadow)">
    <g fill="#ffffff" stroke="#dbe7f3" stroke-width="3">
      <circle cx="130" cy="420" r="56"/>
      <circle cx="330" cy="310" r="64"/>
      <circle cx="540" cy="330" r="70"/>
      <circle cx="740" cy="230" r="76"/>
      <circle cx="960" cy="165" r="84"/>
    </g>
    <g fill="#1d4ed8">
      <circle cx="130" cy="420" r="14"/>
      <circle cx="330" cy="310" r="14"/>
      <circle cx="540" cy="330" r="14"/>
      <circle cx="740" cy="230" r="14"/>
      <circle cx="960" cy="165" r="14"/>
    </g>
  </g>
  <g font-family="Inter, Arial, sans-serif" fill="#172033" font-weight="800" font-size="28">
    <text x="78" y="535">Neuron</text>
    <text x="258" y="215">Perceptron</text>
    <text x="460" y="455">Deep nets</text>
    <text x="650" y="130">Transformers</text>
    <text x="895" y="300">Agents</text>
  </g>
  <g stroke="#dbe7f3" stroke-width="2">
    <path d="M180 600 H1040"/>
    <path d="M180 600 V585"/>
    <path d="M380 600 V585"/>
    <path d="M580 600 V585"/>
    <path d="M780 600 V585"/>
    <path d="M980 600 V585"/>
  </g>
</svg>
