<svg xmlns="http://www.w3.org/2000/svg" viewBox="0 0 1200 700" role="img" aria-label="Deep network layers placeholder">
  <rect width="1200" height="700" fill="#ffffff"/>
  <g stroke="#bfd5ee" stroke-width="3" opacity="0.9">
    <path d="M220 180 L420 130 L620 170 L820 210 L1010 250"/>
    <path d="M220 180 L420 300 L620 260 L820 350 L1010 330"/>
    <path d="M220 350 L420 130 L620 430 L820 210 L1010 250"/>
    <path d="M220 350 L420 470 L620 260 L820 520 L1010 410"/>
    <path d="M220 520 L420 300 L620 170 L820 350 L1010 330"/>
    <path d="M220 520 L420 470 L620 430 L820 520 L1010 410"/>
  </g>
  <g>
    <g fill="#1d4ed8"><circle cx="220" cy="180" r="25"/><circle cx="220" cy="350" r="25"/><circle cx="220" cy="520" r="25"/></g>
    <g fill="#06b6d4"><circle cx="420" cy="130" r="25"/><circle cx="420" cy="300" r="25"/><circle cx="420" cy="470" r="25"/></g>
    <g fill="#2563eb"><circle cx="620" cy="170" r="25"/><circle cx="620" cy="260" r="25"/><circle cx="620" cy="430" r="25"/></g>
    <g fill="#7c3aed"><circle cx="820" cy="210" r="25"/><circle cx="820" cy="350" r="25"/><circle cx="820" cy="520" r="25"/></g>
    <g fill="#10b981"><circle cx="1010" cy="250" r="25"/><circle cx="1010" cy="330" r="25"/><circle cx="1010" cy="410" r="25"/></g>
  </g>
  <text x="310" y="635" font-family="Inter, Arial, sans-serif" font-size="34" font-weight="800" fill="#172033">Composition across layers</text>
</svg>
