<svg xmlns="http://www.w3.org/2000/svg" viewBox="0 0 1200 760" role="img" aria-label="Deep learning revolution visual">
  <defs>
    <linearGradient id="revGrad" x1="0" x2="1" y1="0" y2="1">
      <stop offset="0" stop-color="#1d4ed8"/>
      <stop offset="0.55" stop-color="#06b6d4"/>
      <stop offset="1" stop-color="#7c3aed"/>
    </linearGradient>
    <filter id="revShadow" x="-20%" y="-20%" width="140%" height="140%">
      <feDropShadow dx="0" dy="20" stdDeviation="18" flood-color="#172033" flood-opacity="0.14"/>
    </filter>
  </defs>
  <rect width="1200" height="760" fill="#ffffff"/>
  <g filter="url(#revShadow)">
    <rect x="115" y="135" width="270" height="390" rx="18" fill="#f8fbff" stroke="#dbe7f3" stroke-width="4"/>
    <rect x="465" y="100" width="270" height="460" rx="18" fill="#f8fbff" stroke="#dbe7f3" stroke-width="4"/>
    <rect x="815" y="135" width="270" height="390" rx="18" fill="#f8fbff" stroke="#dbe7f3" stroke-width="4"/>
  </g>
  <g fill="none" stroke-linecap="round">
    <path d="M180 455 C260 300, 310 260, 350 205" stroke="#1d4ed8" stroke-width="10"/>
    <path d="M520 480 C575 350, 625 250, 695 155" stroke="#06b6d4" stroke-width="10"/>
    <path d="M870 455 C930 335, 1010 260, 1050 205" stroke="#7c3aed" stroke-width="10"/>
  </g>
  <g>
    <circle cx="250" cy="340" r="54" fill="#1d4ed8"/>
    <rect x="535" y="240" width="130" height="130" rx="18" fill="#172033"/>
    <g fill="#06b6d4">
      <rect x="555" y="260" width="20" height="20" rx="4"/>
      <rect x="590" y="260" width="20" height="20" rx="4"/>
      <rect x="625" y="260" width="20" height="20" rx="4"/>
      <rect x="555" y="295" width="20" height="20" rx="4"/>
      <rect x="590" y="295" width="20" height="20" rx="4"/>
      <rect x="625" y="295" width="20" height="20" rx="4"/>
      <rect x="555" y="330" width="20" height="20" rx="4"/>
      <rect x="590" y="330" width="20" height="20" rx="4"/>
      <rect x="625" y="330" width="20" height="20" rx="4"/>
    </g>
    <path d="M920 365 L980 240 L1040 365 Z" fill="url(#revGrad)"/>
  </g>
  <g fill="#172033" font-family="Inter, Arial, sans-serif" font-weight="850" text-anchor="middle">
    <text x="250" y="615" font-size="30">Data</text>
    <text x="600" y="615" font-size="30">Compute</text>
    <text x="950" y="615" font-size="30">Algorithms</text>
  </g>
</svg>
