<svg xmlns="http://www.w3.org/2000/svg" viewBox="0 0 1200 700" role="img" aria-label="Embodied edge AI placeholder">
  <rect width="1200" height="700" fill="#ffffff"/>
  <rect x="120" y="120" width="310" height="430" rx="8" fill="#f8fbff" stroke="#dbe7f3" stroke-width="4"/>
  <rect x="750" y="150" width="310" height="370" rx="8" fill="#f8fbff" stroke="#dbe7f3" stroke-width="4"/>
  <circle cx="275" cy="245" r="72" fill="#1d4ed8"/>
  <rect x="215" y="330" width="120" height="120" rx="8" fill="#06b6d4"/>
  <path d="M215 375 H150 M335 375 H400 M245 450 L220 525 M305 450 L335 525" stroke="#172033" stroke-width="12" stroke-linecap="round"/>
  <rect x="820" y="225" width="170" height="210" rx="8" fill="#172033"/>
  <circle cx="905" cy="480" r="20" fill="#10b981"/>
  <g stroke="#7c3aed" stroke-width="8" fill="none" stroke-linecap="round">
    <path d="M450 260 C560 180, 670 180, 750 255"/>
    <path d="M750 410 C650 505, 540 505, 430 425"/>
  </g>
  <text x="222" y="622" font-family="Inter, Arial, sans-serif" font-size="30" font-weight="800" fill="#172033">Embodiment</text>
  <text x="810" y="622" font-family="Inter, Arial, sans-serif" font-size="30" font-weight="800" fill="#172033">Edge device</text>
</svg>
