<svg xmlns="http://www.w3.org/2000/svg" viewBox="0 0 1200 760" role="img" aria-label="AI evolution hero visual">
  <defs>
    <linearGradient id="heroGrad" x1="0" x2="1" y1="0" y2="1">
      <stop offset="0" stop-color="#1d4ed8"/>
      <stop offset="0.5" stop-color="#06b6d4"/>
      <stop offset="1" stop-color="#7c3aed"/>
    </linearGradient>
    <linearGradient id="panelGrad" x1="0" x2="1" y1="0" y2="1">
      <stop offset="0" stop-color="#ffffff"/>
      <stop offset="1" stop-color="#eef7ff"/>
    </linearGradient>
    <filter id="softShadow" x="-20%" y="-20%" width="140%" height="140%">
      <feDropShadow dx="0" dy="22" stdDeviation="22" flood-color="#172033" flood-opacity="0.15"/>
    </filter>
  </defs>
  <rect width="1200" height="760" fill="#ffffff"/>
  <path d="M70 620 C230 260, 450 660, 640 310 S940 170, 1120 80" fill="none" stroke="url(#heroGrad)" stroke-width="18" stroke-linecap="round" opacity="0.9"/>
  <g filter="url(#softShadow)">
    <rect x="110" y="110" width="260" height="180" rx="16" fill="url(#panelGrad)" stroke="#dbe7f3" stroke-width="3"/>
    <rect x="470" y="290" width="270" height="190" rx="16" fill="url(#panelGrad)" stroke="#dbe7f3" stroke-width="3"/>
    <rect x="820" y="115" width="270" height="230" rx="16" fill="url(#panelGrad)" stroke="#dbe7f3" stroke-width="3"/>
  </g>
  <g fill="none" stroke-linecap="round" stroke-linejoin="round">
    <path d="M190 210 C150 170, 140 155, 118 135" stroke="#1d4ed8" stroke-width="8"/>
    <path d="M195 215 C155 235, 140 255, 112 278" stroke="#06b6d4" stroke-width="7"/>
    <path d="M245 208 C310 190, 330 165, 350 142" stroke="#7c3aed" stroke-width="7"/>
    <path d="M590 360 L525 315 M590 360 L525 410 M590 360 L670 315 M590 360 L670 410" stroke="#1d4ed8" stroke-width="5"/>
    <path d="M925 245 C985 150, 1060 155, 1080 235" stroke="#06b6d4" stroke-width="6"/>
    <path d="M925 245 C1000 300, 1025 315, 1085 275" stroke="#7c3aed" stroke-width="6"/>
  </g>
  <g>
    <circle cx="230" cy="215" r="48" fill="#f8fbff" stroke="#bfd5ee" stroke-width="4"/>
    <circle cx="230" cy="215" r="17" fill="#7c3aed"/>
    <circle cx="590" cy="360" r="36" fill="#1d4ed8"/>
    <circle cx="525" cy="315" r="20" fill="#06b6d4"/>
    <circle cx="525" cy="410" r="20" fill="#06b6d4"/>
    <circle cx="670" cy="315" r="20" fill="#7c3aed"/>
    <circle cx="670" cy="410" r="20" fill="#7c3aed"/>
    <rect x="900" y="208" width="190" height="74" rx="14" fill="#172033"/>
    <circle cx="935" cy="245" r="12" fill="#06b6d4"/>
    <circle cx="995" cy="245" r="12" fill="#10b981"/>
    <circle cx="1055" cy="245" r="12" fill="#7c3aed"/>
  </g>
  <g fill="#172033" font-family="Inter, Arial, sans-serif" font-weight="850">
    <text x="132" y="352" font-size="29">Neuron</text>
    <text x="465" y="552" font-size="29">Networks</text>
    <text x="820" y="420" font-size="29">Agents</text>
  </g>
  <g opacity="0.6" stroke="#dbe7f3" stroke-width="2">
    <path d="M110 665 H1080"/>
    <path d="M210 665 V642"/>
    <path d="M560 665 V642"/>
    <path d="M940 665 V642"/>
  </g>
</svg>
