<svg xmlns="http://www.w3.org/2000/svg" viewBox="0 0 1200 700" role="img" aria-label="Large language model interface placeholder">
  <rect width="1200" height="700" fill="#ffffff"/>
  <g fill="#f8fbff" stroke="#dbe7f3" stroke-width="4">
    <rect x="95" y="145" width="280" height="410" rx="8"/>
    <rect x="825" y="145" width="280" height="410" rx="8"/>
    <rect x="450" y="100" width="300" height="500" rx="8"/>
  </g>
  <g fill="#1d4ed8">
    <rect x="135" y="205" width="220" height="28" rx="8"/>
    <rect x="135" y="260" width="160" height="28" rx="8"/>
    <rect x="135" y="315" width="205" height="28" rx="8"/>
  </g>
  <g fill="#10b981">
    <rect x="865" y="205" width="200" height="28" rx="8"/>
    <rect x="865" y="260" width="145" height="28" rx="8"/>
    <rect x="865" y="315" width="225" height="28" rx="8"/>
    <rect x="865" y="370" width="175" height="28" rx="8"/>
  </g>
  <g stroke="#bfd5ee" stroke-width="4">
    <path d="M375 350 H450"/>
    <path d="M750 350 H825"/>
  </g>
  <g fill="#ffffff" stroke="#7c3aed" stroke-width="4">
    <circle cx="520" cy="210" r="34"/>
    <circle cx="600" cy="290" r="34"/>
    <circle cx="680" cy="370" r="34"/>
    <circle cx="560" cy="450" r="34"/>
  </g>
  <g stroke="#06b6d4" stroke-width="5">
    <path d="M520 210 L600 290 L680 370 L560 450 L520 210"/>
    <path d="M600 290 L560 450"/>
  </g>
  <text x="465" y="660" font-family="Inter, Arial, sans-serif" font-size="34" font-weight="800" fill="#172033">Language as interface</text>
</svg>
