<?xml version="1.0" encoding="UTF-8" standalone="no"?>
<!-- Created with Inkscape (http://www.inkscape.org/) -->

<svg
   width="117.45898mm"
   height="139.80492mm"
   viewBox="0 0 117.45898 139.80492"
   version="1.1"
   id="svg1"
   xml:space="preserve"
   xmlns:inkscape="http://www.inkscape.org/namespaces/inkscape"
   xmlns:sodipodi="http://sodipodi.sourceforge.net/DTD/sodipodi-0.dtd"
   xmlns="http://www.w3.org/2000/svg"
   xmlns:svg="http://www.w3.org/2000/svg"><sodipodi:namedview
     id="namedview1"
     pagecolor="#ffffff"
     bordercolor="#000000"
     borderopacity="0.25"
     inkscape:showpageshadow="2"
     inkscape:pageopacity="0.0"
     inkscape:pagecheckerboard="0"
     inkscape:deskcolor="#d1d1d1"
     inkscape:document-units="mm" /><defs
     id="defs1" /><g
     inkscape:label="Layer 1"
     inkscape:groupmode="layer"
     id="layer1"
     transform="translate(-356.92976,-224.48123)"><path
       id="path3"
       style="color:#000000;fill:#bd0b2f;fill-opacity:1;stroke-width:0.975127;stroke-linejoin:round;stroke-miterlimit:6.6;stroke-dashoffset:30.5643;-inkscape-stroke:none"
       d="m 415.66001,224.48122 a 9.6009601,9.6009601 0 0 0 -3.283,0.57826 9.6009601,9.6009601 0 0 0 -5.03018,4.22093 l -49.12982,85.09506 a 9.6009601,9.6009601 0 0 0 -1.28726,4.79919 v 45.11146 h 117.45898 v -45.11146 a 9.6009601,9.6009601 0 0 0 -1.28571,-4.79919 l -49.1293,-85.09506 a 9.6009601,9.6009601 0 0 0 -8.31371,-4.79919 z" /><path
       id="path1"
       style="fill:#ffffff;fill-opacity:1;stroke-width:56.6;stroke-miterlimit:6.6;stroke-dasharray:none;stroke-dashoffset:30.5643"
       inkscape:transform-center-x="1.15938e-06"
       inkscape:transform-center-y="-14.182403"
       d="m 464.78852,355.9659 v -36.79131 l -49.12928,-85.09441 -49.12928,85.09441 v 36.79131 z"
       sodipodi:nodetypes="cccccc" /><path
       id="path4"
       style="fill:#000000;fill-opacity:1;stroke:none;stroke-width:19.2;stroke-linejoin:round;stroke-miterlimit:6.6;stroke-dasharray:none;stroke-dashoffset:30.5643;stroke-opacity:1"
       d="m 415.65924,267.6977 c -19.16001,0 -20.96874,16.86719 -20.96874,16.86719 0,0.59101 0.0952,1.29199 0.24546,2.0531 5.15478,1.48046 8.7067,6.19479 8.708,11.55796 -0.007,2.41977 -0.74353,4.78122 -2.11357,6.77581 0.41655,1.50971 2.93625,2.58434 2.93625,2.58434 v 6.90965 c 0,2.43318 2.43293,2.43345 2.43293,2.43345 h 17.51935 c 0,0 2.43292,-2.7e-4 2.43292,-2.43345 v -6.90965 c 0,0 2.51971,-1.07463 2.93626,-2.58434 -1.37005,-1.99459 -2.10667,-4.35604 -2.11357,-6.77581 10e-4,-5.36317 3.55322,-10.0775 8.708,-11.55796 0.15022,-0.76111 0.24546,-1.46209 0.24546,-2.0531 0,0 -1.80873,-16.86719 -20.96875,-16.86719 z m -8.13955,18.08779 a 3.233176,3.233176 0 0 1 3.23288,3.23339 3.233176,3.233176 0 0 1 -3.23288,3.23288 3.233176,3.233176 0 0 1 -3.2334,-3.23288 3.233176,3.233176 0 0 1 3.2334,-3.23339 z m 16.27911,0 a 3.233176,3.233176 0 0 1 3.23288,3.23339 3.233176,3.233176 0 0 1 -3.23288,3.23288 3.233176,3.233176 0 0 1 -3.2334,-3.23288 3.233176,3.233176 0 0 1 3.2334,-3.23339 z m -8.13956,9.30951 1.80351,3.12487 1.80454,3.12436 -3.60805,-5.2e-4 -3.60805,5.2e-4 1.80455,-3.12436 z m -6.28592,11.17503 h 2.48719 v 2.48718 h -2.48719 z m 3.36155,0 h 2.48719 v 2.48718 h -2.48719 z m 3.36104,0 h 2.48719 v 2.48718 h -2.48719 z m 3.36155,0 h 2.48719 v 2.48718 h -2.48719 z m -10.08414,3.39152 h 2.48719 v 2.48667 h -2.48719 z m 3.36155,0 h 2.48719 v 2.48667 h -2.48719 z m 3.36104,0 h 2.48719 v 2.48667 h -2.48719 z m 3.36155,0 h 2.48719 v 2.48667 h -2.48719 z" /><path
       d="m 535.69339,287.86332 q 0.24712,0.12709 0.24712,0.36715 0,0.35303 -0.64605,0.98849 -0.64605,0.63193 -1.59217,1.2109 -0.9426,0.57898 -1.31329,0.57898 -0.16592,0 -0.26477,-0.0883 -0.10238,-0.0847 -0.10238,-0.22241 0,-0.25419 0.31773,-0.3495 1.0132,-0.30714 1.96286,-1.03086 0.94966,-0.72725 0.94966,-1.04145 0,-0.17651 -0.25418,-0.24712 -0.27184,-0.0812 -0.27184,-0.24712 0,-0.13415 0.0918,-0.20829 0.0918,-0.0741 0.39893,-0.13768 0.73077,-0.15534 0.73077,-0.35304 0,-0.0459 -0.1165,-0.10944 -0.11297,-0.0671 -0.31773,-0.12356 -0.21888,-0.0529 -0.21888,-0.25418 0,-0.19064 0.25419,-0.28596 0.1165,-0.0494 0.30008,-0.15886 0.1871,-0.10944 0.27889,-0.19064 0.14474,-0.12356 0.28949,-0.12356 0.11297,0 0.19417,0.0847 0.0812,0.0812 0.0812,0.19769 0,0.1977 -0.50836,0.44836 0.52955,0.18004 0.52955,0.52248 0,0.25772 -0.25419,0.44129 -0.25065,0.18005 -0.76608,0.33186 z m -0.33185,-2.3512 z m 0.7096,5.36609 z m -2.9443,-4.38113 z m 0.47659,-1.93462 q 0,-0.10591 0.0565,-0.16593 0.0565,-0.06 0.21535,-0.13062 0.48013,-0.20829 1.16148,-0.91788 0.14828,-0.15181 0.30008,-0.15181 0.20829,0 0.20829,0.22241 0,0.20123 -0.64958,0.79433 -0.64958,0.59309 -1.00614,0.59309 -0.13063,0 -0.20829,-0.0671 -0.0777,-0.0671 -0.0777,-0.17652 z m 0.60369,0.24359 z m -3.08904,3.03608 q -0.7802,0.73784 -1.88167,1.47215 -1.10146,0.73078 -1.48626,0.73078 -0.16946,0 -0.26831,-0.0847 -0.10238,-0.0847 -0.10238,-0.22594 0,-0.25065 0.40599,-0.38128 0.53661,-0.17651 1.34505,-0.68135 0.80845,-0.50484 1.53217,-1.18619 -0.38128,-0.25771 -0.38128,-0.56132 0,-0.1977 0.12709,-0.31067 0.13063,-0.1165 0.35657,-0.1165 0.37068,0 0.64252,0.25771 0.91788,-0.91788 1.30975,-0.91788 0.34597,0 0.34597,0.26124 0,0.30361 -0.40599,0.49072 -0.36362,0.17298 -0.8155,0.60015 0.13768,0.0988 0.47659,0.13769 0.37775,0.0459 0.37775,0.3848 0,0.18711 -0.15181,0.30008 -0.1518,0.11297 -0.37774,0.11297 -0.50484,0 -1.04851,-0.28243 z m 0.24712,-2.33001 z m 0.89671,4.18697 z m -0.88965,-5.24607 z m -0.79785,-0.6637 q -0.22594,-0.18005 -0.7449,-0.233 -0.27537,-0.0283 -0.27537,-0.24007 0,-0.10944 0.0777,-0.18357 0.0812,-0.0741 0.21182,-0.0741 0.32832,0 0.79786,0.18005 0.46953,0.17651 0.46953,0.47659 0,0.28243 -0.56838,0.68841 -0.56486,0.40246 -0.82963,0.40246 -0.28596,0 -0.28596,-0.22947 0,-0.12356 0.0635,-0.18358 0.0635,-0.0635 0.20829,-0.11297 0.65664,-0.24006 0.87552,-0.49071 z m -0.75196,1.01673 z m -3.34675,3.59034 q -0.0988,0.0247 -0.20829,0.0247 -0.43776,0 -0.7096,-0.21888 -0.27184,-0.21888 -0.27184,-0.57898 0,-0.46247 0.3954,-0.80138 0.39893,-0.33891 0.92495,-0.33891 0.48012,0 0.75902,0.24712 0.28242,0.24359 0.28242,0.67782 0,0.45895 -0.38127,1.01321 -0.38128,0.55073 -1.27092,1.08734 -0.88611,0.53661 -1.46155,0.53661 -0.16946,0 -0.26831,-0.0847 -0.10238,-0.0847 -0.10238,-0.22594 0,-0.29302 0.46953,-0.37422 0.99203,-0.16945 1.84284,-0.96378 z m 0.5013,-1.00967 q 0,-0.33538 -0.39893,-0.33538 -0.25065,0 -0.43776,0.16946 -0.18357,0.16592 -0.18357,0.33185 0,0.31067 0.42011,0.31067 0.233,0 0.41657,-0.1624 0.18358,-0.16593 0.18358,-0.3142 z m -0.75196,-1.8746 z m 1.39448,4.6565 z m -1.41566,-5.7156 z m -5.04836,0.97437 q 0,-0.10591 0.0565,-0.16593 0.0565,-0.06 0.21535,-0.13062 0.49071,-0.21888 1.03085,-0.75902 0.14121,-0.14474 0.28596,-0.14474 0.21182,0 0.21182,0.22241 0,0.1977 -0.59663,0.70959 -0.59309,0.5119 -0.91788,0.5119 -0.13063,0 -0.20829,-0.0671 -0.0777,-0.0671 -0.0777,-0.17652 z m 1.15442,0.30361 q 0,-0.10944 0.06,-0.16946 0.06,-0.06 0.21535,-0.12709 0.48719,-0.21888 1.02733,-0.75902 0.14474,-0.14474 0.28948,-0.14474 0.20829,0 0.20829,0.22241 0,0.1977 -0.59309,0.70959 -0.5931,0.5119 -0.91789,0.5119 -0.13062,0 -0.21182,-0.0671 -0.0777,-0.0671 -0.0777,-0.17651 z m 0.32832,0.24359 z m -4.08106,2.00523 q -0.47659,0.41657 -0.47659,0.60721 0,0.053 0.0847,0.10944 0.0883,0.0565 0.37774,0.18711 0.35303,0.1518 0.50837,0.30008 0.15886,0.14474 0.15886,0.33538 0,0.34597 -0.74137,0.72372 -0.73784,0.38127 -1.30622,0.38127 -0.23653,0 -0.36715,-0.0883 -0.13062,-0.0883 -0.13062,-0.24359 0,-0.30361 0.49071,-0.33891 0.39893,-0.0282 0.7802,-0.1624 0.38481,-0.13062 0.38481,-0.22241 0,-0.0459 -0.06,-0.0812 -0.0565,-0.0318 -0.23653,-0.10591 -0.45188,-0.18358 -0.59309,-0.32479 -0.13769,-0.14475 -0.13769,-0.38481 0,-0.466 0.98497,-1.33093 0.98849,-0.86493 1.78281,-0.86493 0.39893,0 0.64958,0.2683 0.25418,0.26831 0.25418,0.67076 0,0.53661 -0.35303,0.90024 -0.35303,0.36362 -0.98496,0.36362 -0.27536,0 -0.56838,-0.19064 -0.29302,-0.19063 -0.50131,-0.50836 z m 0.45541,-0.39187 q 0.12003,0.20476 0.31773,0.34244 0.20123,0.13415 0.37069,0.13415 0.27183,0 0.42364,-0.15533 0.15533,-0.15887 0.15533,-0.4307 0,-0.17652 -0.0883,-0.28596 -0.0847,-0.10944 -0.22947,-0.10944 -0.40599,0 -0.94966,0.50484 z m 0.19064,-2.07583 z m 0.93554,5.54614 z m -0.93554,-6.60524 z m 0.41658,-0.45894 z m -0.79079,0.0812 q 0.22594,0.18005 0.7449,0.23301 0.27536,0.0282 0.27536,0.24006 0,0.11297 -0.0812,0.18711 -0.0777,0.0706 -0.20828,0.0706 -0.32832,0 -0.79786,-0.17651 -0.466,-0.18005 -0.466,-0.48013 0,-0.28596 0.56485,-0.68841 0.56485,-0.40246 0.82963,-0.40246 0.28948,0 0.28948,0.22947 0,0.12356 -0.0671,0.18711 -0.0635,0.06 -0.20829,0.10944 -0.65664,0.24006 -0.87552,0.49071 z m 0.37421,0.73078 z m -4.21521,3.03608 q -0.7802,0.73784 -1.88166,1.47215 -1.10147,0.73078 -1.48627,0.73078 -0.16946,0 -0.26831,-0.0847 -0.10238,-0.0847 -0.10238,-0.22594 0,-0.25065 0.40599,-0.38128 0.53661,-0.17651 1.34506,-0.68135 0.80844,-0.50484 1.53216,-1.18619 -0.38128,-0.25771 -0.38128,-0.56132 0,-0.1977 0.1271,-0.31067 0.13062,-0.1165 0.35656,-0.1165 0.37068,0 0.64252,0.25771 0.91788,-0.91788 1.30975,-0.91788 0.34597,0 0.34597,0.26124 0,0.30361 -0.40599,0.49072 -0.36362,0.17298 -0.8155,0.60015 0.13768,0.0988 0.47659,0.13769 0.37775,0.0459 0.37775,0.3848 0,0.18711 -0.15181,0.30008 -0.1518,0.11297 -0.37774,0.11297 -0.50484,0 -1.04851,-0.28243 z m 0.24712,-2.33001 z m 0.89671,4.18697 z m -0.88965,-5.24607 z m -1.85695,7.12067 q 0,-0.21888 0.27184,-0.31773 0.56485,-0.20123 1.20737,-0.5931 0.16945,-0.0988 0.31067,-0.0988 0.0918,0 0.15533,0.06 0.0635,0.0636 0.0635,0.14121 0,0.20829 -0.71313,0.62134 -0.71312,0.41305 -1.02379,0.41305 -0.12003,0 -0.1977,-0.0671 -0.0741,-0.0635 -0.0741,-0.15886 z m 2.81367,-1.15795 z m -9.38361,-2.01935 q -0.0989,0.0247 -0.20829,0.0247 -0.43776,0 -0.7096,-0.21888 -0.27183,-0.21888 -0.27183,-0.57898 0,-0.46247 0.39539,-0.80138 0.39893,-0.33891 0.92495,-0.33891 0.48012,0 0.75902,0.24712 0.28242,0.24359 0.28242,0.67782 0,0.45895 -0.38127,1.01321 -0.38128,0.55073 -1.27092,1.08734 -0.88611,0.53661 -1.46155,0.53661 -0.16946,0 -0.26831,-0.0847 -0.10238,-0.0847 -0.10238,-0.22594 0,-0.29302 0.46954,-0.37422 0.99202,-0.16945 1.84283,-0.96378 z m 0.5013,-1.00967 q 0,-0.33538 -0.39892,-0.33538 -0.25066,0 -0.43776,0.16946 -0.18358,0.16592 -0.18358,0.33185 0,0.31067 0.42011,0.31067 0.233,0 0.41658,-0.1624 0.18357,-0.16593 0.18357,-0.3142 z m -0.75196,-1.8746 z m 1.39448,4.6565 z m -1.41566,-5.7156 z m -3.90101,0.50484 q -0.22594,-0.18005 -0.7449,-0.23301 -0.27536,-0.0282 -0.27536,-0.24006 0,-0.10944 0.0777,-0.18357 0.0812,-0.0741 0.21182,-0.0741 0.32832,0 0.79785,0.18004 0.46953,0.17652 0.46953,0.4766 0,0.28243 -0.56838,0.68841 -0.56485,0.40246 -0.82963,0.40246 -0.28595,0 -0.28595,-0.22947 0,-0.12356 0.0635,-0.18358 0.0636,-0.0635 0.20829,-0.11297 0.65664,-0.24006 0.87552,-0.49071 z m -0.75196,1.01673 z m -2.63362,1.30975 q -0.13768,0 -0.22241,-0.0812 -0.0812,-0.0812 -0.0812,-0.20829 0,-0.24359 0.34951,-0.37774 0.3495,-0.13415 0.97437,-0.13415 0.48365,0 0.77314,0.18004 0.28948,0.18005 0.28948,0.4766 0,0.69547 -1.50038,1.78281 -1.49686,1.08734 -2.19234,1.08734 -0.36362,0 -0.36362,-0.29654 0,-0.3142 0.46247,-0.38834 0.79079,-0.13768 1.85342,-0.93907 1.06263,-0.80138 1.06263,-1.165 0,-0.12357 -0.41305,-0.12357 -0.26124,0 -0.60721,0.10944 -0.24713,0.0777 -0.38481,0.0777 z m 0.66723,-1.77222 z m 0.73078,4.99541 z m -2.14997,-5.94507 q 0,-0.10591 0.0565,-0.16593 0.0565,-0.06 0.21535,-0.13062 0.48013,-0.20829 1.16148,-0.91788 0.14828,-0.15181 0.30008,-0.15181 0.20829,0 0.20829,0.22241 0,0.20123 -0.64958,0.79433 -0.64958,0.59309 -1.00614,0.59309 -0.13063,0 -0.20829,-0.0671 -0.0777,-0.0671 -0.0777,-0.17652 z m 0.60368,0.24359 z m -4.35642,3.95397 q 0.61075,-0.29302 1.22855,-0.88611 0.61781,-0.5931 0.91083,-1.26033 0.12709,-0.28243 0.3848,-0.28243 0.14122,0 0.22594,0.0741 0.0847,0.0741 0.0847,0.20829 0,0.38127 -0.58603,1.08381 -0.58251,0.699 -1.39801,1.23208 -0.81198,0.52955 -1.2921,0.52955 -0.14828,0 -0.24006,-0.0847 -0.0918,-0.0847 -0.0918,-0.19417 0,-0.18358 0.15886,-0.49425 0.31067,-0.60721 0.31067,-1.18619 0,-0.19064 -0.0847,-0.42364 -0.06,-0.16945 -0.06,-0.2683 0,-0.13062 0.0812,-0.21888 0.0847,-0.0918 0.24359,-0.0918 0.46953,0 0.46953,0.90376 0,0.83316 -0.34597,1.35918 z m 0.94613,-3.2479 z m 1.2462,4.29994 z m -3.20907,1.76516 q 0,-0.21888 0.27537,-0.31773 0.56132,-0.20123 1.20737,-0.59309 0.16593,-0.10238 0.31067,-0.10238 0.0883,0 0.15181,0.06 0.0671,0.0636 0.0671,0.14474 0,0.21182 -0.71666,0.62134 -0.71665,0.41305 -1.02026,0.41305 -0.12003,0 -0.1977,-0.0671 -0.0777,-0.0635 -0.0777,-0.15886 z m 1.55688,0.19417 q 0,-0.21888 0.27183,-0.31773 0.56486,-0.20123 1.20738,-0.5931 0.16945,-0.0989 0.3142,-0.0989 0.0882,0 0.1518,0.06 0.0636,0.0636 0.0636,0.14121 0,0.20829 -0.71313,0.62134 -0.71313,0.41305 -1.0238,0.41305 -0.12003,0 -0.19769,-0.0671 -0.0741,-0.0635 -0.0741,-0.15886 z m 1.78634,-1.15795 z m -9.21415,-3.3291 q -0.13768,0 -0.22241,-0.0812 -0.0812,-0.0812 -0.0812,-0.20829 0,-0.24359 0.3495,-0.37774 0.3495,-0.13415 0.97437,-0.13415 0.48365,0 0.77314,0.18004 0.28949,0.18005 0.28949,0.4766 0,0.69547 -1.50039,1.78281 -1.49686,1.08734 -2.19234,1.08734 -0.36362,0 -0.36362,-0.29654 0,-0.3142 0.46247,-0.38834 0.7908,-0.13768 1.85342,-0.93907 1.06263,-0.80138 1.06263,-1.165 0,-0.12357 -0.41304,-0.12357 -0.26125,0 -0.60722,0.10944 -0.24712,0.0777 -0.38481,0.0777 z m 0.66724,-1.77222 z m 0.73077,4.99541 z m -5.239,-5.54967 q -0.22594,-0.18005 -0.7449,-0.23301 -0.27537,-0.0282 -0.27537,-0.24006 0,-0.10944 0.0777,-0.18357 0.0812,-0.0741 0.21182,-0.0741 0.32832,0 0.79785,0.18004 0.46954,0.17652 0.46954,0.4766 0,0.28243 -0.56839,0.68841 -0.56485,0.40246 -0.82962,0.40246 -0.28596,0 -0.28596,-0.22947 0,-0.12356 0.0635,-0.18358 0.0635,-0.0635 0.20829,-0.11297 0.65664,-0.24006 0.87552,-0.49071 z m -0.75196,1.01673 z m -4.75888,3.77392 q 0,-0.15533 0.0953,-0.24006 0.0918,-0.0812 0.31067,-0.14828 1.06969,-0.33891 1.89226,-1.02379 0.8261,-0.68841 1.21796,-1.53569 0.0741,-0.15887 0.14828,-0.233 0.0741,-0.0777 0.22594,-0.0777 0.1165,0 0.18357,0.0812 0.0706,0.0777 0.0706,0.19416 0,0.41658 -0.68841,1.2215 -0.68489,0.80138 -1.67691,1.42978 -0.99202,0.6284 -1.41566,0.6284 -0.1624,0 -0.26124,-0.0847 -0.10238,-0.0812 -0.10238,-0.21182 z m 2.62656,-4.23639 z m 1.35918,4.6565 z m -2.76778,1.40507 q 0,-0.21888 0.27183,-0.31773 0.56486,-0.20123 1.20738,-0.5931 0.16945,-0.0988 0.31066,-0.0988 0.0918,0 0.15534,0.06 0.0635,0.0636 0.0635,0.14121 0,0.20829 -0.71312,0.62134 -0.71313,0.41305 -1.0238,0.41305 -0.12003,0 -0.19769,-0.0671 -0.0741,-0.0635 -0.0741,-0.15886 z m 2.81367,-1.15795 z m -8.08092,-3.2479 q -0.71312,1.07675 -1.50392,1.68397 -0.78726,0.60721 -1.32034,0.60721 -0.15887,0 -0.25065,-0.0741 -0.0918,-0.0741 -0.0918,-0.20476 0,-0.2789 0.39186,-0.41305 0.57192,-0.1977 1.10147,-0.61428 0.53308,-0.42011 0.92141,-0.99202 0.26125,-0.37774 0.43776,-0.51896 0.18005,-0.14474 0.3601,-0.14474 0.2683,0 0.48012,0.33538 0.21182,0.33185 0.21182,0.74137 0,0.55779 -0.12356,0.99555 -0.12356,0.43776 -0.24359,0.58957 -0.12004,0.14827 -0.32479,0.14827 -0.30361,0 -0.30361,-0.31067 0,-0.19064 0.17298,-0.5472 0.18711,-0.40246 0.18711,-0.81904 0,-0.28948 -0.10238,-0.46247 z m 0.33538,2.66893 z m -0.0177,0.80138 z m -1.2109,-5.12603 z m -3.59035,-0.65664 q 0,0.36009 -0.34244,0.74137 -0.34244,0.37774 -0.80138,0.37774 -0.36363,0 -0.60016,-0.21182 -0.23653,-0.21535 -0.23653,-0.5472 0,-0.32832 0.42364,-0.65664 0.42717,-0.33185 0.90729,-0.33185 0.29655,0 0.47307,0.16592 0.17651,0.1624 0.17651,0.46248 z m -1.12617,0.62839 q 0.17652,0 0.38128,-0.23653 0.20828,-0.23653 0.20828,-0.37774 0,-0.16593 -0.1518,-0.16593 -0.22947,0 -0.49425,0.1977 -0.26477,0.19417 -0.26477,0.33538 0,0.0989 0.0883,0.17299 0.0918,0.0741 0.233,0.0741 z m 0.4307,0.49072 z m -3.56563,1.30975 q -0.13768,0 -0.22241,-0.0812 -0.0812,-0.0812 -0.0812,-0.20829 0,-0.24359 0.3495,-0.37774 0.34951,-0.13415 0.97437,-0.13415 0.48366,0 0.77315,0.18004 0.28948,0.18005 0.28948,0.4766 0,0.69547 -1.50039,1.78281 -1.49686,1.08734 -2.19233,1.08734 -0.36362,0 -0.36362,-0.29654 0,-0.3142 0.46247,-0.38834 0.79079,-0.13768 1.85342,-0.93907 1.06263,-0.80138 1.06263,-1.165 0,-0.12357 -0.41305,-0.12357 -0.26124,0 -0.60722,0.10944 -0.24712,0.0777 -0.3848,0.0777 z m 0.66723,-1.77222 z m 0.73078,4.99541 z m -5.23901,-5.54967 q -0.22594,-0.18005 -0.7449,-0.23301 -0.27536,-0.0282 -0.27536,-0.24006 0,-0.10944 0.0777,-0.18357 0.0812,-0.0741 0.21182,-0.0741 0.32832,0 0.79785,0.18004 0.46953,0.17652 0.46953,0.4766 0,0.28243 -0.56838,0.68841 -0.56485,0.40246 -0.82963,0.40246 -0.28595,0 -0.28595,-0.22947 0,-0.12356 0.0635,-0.18358 0.0635,-0.0635 0.20829,-0.11297 0.65664,-0.24006 0.87552,-0.49071 z m -0.75196,1.01673 z m -3.44207,2.78543 q 0.61075,-0.29302 1.22856,-0.88611 0.61781,-0.5931 0.91082,-1.26033 0.12709,-0.28243 0.38481,-0.28243 0.14121,0 0.22594,0.0741 0.0847,0.0741 0.0847,0.20829 0,0.38127 -0.58604,1.08381 -0.5825,0.699 -1.39801,1.23208 -0.81197,0.52955 -1.2921,0.52955 -0.14827,0 -0.24006,-0.0847 -0.0918,-0.0847 -0.0918,-0.19417 0,-0.18358 0.15887,-0.49425 0.31067,-0.60721 0.31067,-1.18619 0,-0.19064 -0.0847,-0.42364 -0.06,-0.16945 -0.06,-0.2683 0,-0.13062 0.0812,-0.21888 0.0847,-0.0918 0.24359,-0.0918 0.46954,0 0.46954,0.90376 0,0.83316 -0.34598,1.35918 z m 0.94613,-3.2479 z m 1.24621,4.29994 z m -2.11114,-5.2496 q 0,-0.10591 0.0565,-0.16593 0.0565,-0.06 0.21535,-0.13062 0.48012,-0.20829 1.16148,-0.91788 0.14827,-0.15181 0.30007,-0.15181 0.20829,0 0.20829,0.22241 0,0.20123 -0.64958,0.79433 -0.64958,0.59309 -1.00614,0.59309 -0.13062,0 -0.20829,-0.0671 -0.0777,-0.0671 -0.0777,-0.17652 z m 0.60369,0.24359 z m -4.04223,2.47829 q -0.13768,0 -0.22241,-0.0812 -0.0812,-0.0812 -0.0812,-0.20829 0,-0.24359 0.3495,-0.37774 0.3495,-0.13415 0.97437,-0.13415 0.48365,0 0.77314,0.18004 0.28949,0.18005 0.28949,0.4766 0,0.69547 -1.50039,1.78281 -1.49686,1.08734 -2.19234,1.08734 -0.36362,0 -0.36362,-0.29654 0,-0.3142 0.46247,-0.38834 0.7908,-0.13768 1.85343,-0.93907 1.06262,-0.80138 1.06262,-1.165 0,-0.12357 -0.41304,-0.12357 -0.26125,0 -0.60722,0.10944 -0.24712,0.0777 -0.38481,0.0777 z m 0.66724,-1.77222 z m 0.73077,4.99541 z m -1.51804,-6.43226 q 0.22594,0.18005 0.7449,0.23301 0.27537,0.0282 0.27537,0.24006 0,0.11297 -0.0812,0.18711 -0.0777,0.0706 -0.20829,0.0706 -0.32832,0 -0.79785,-0.17651 -0.46601,-0.18005 -0.46601,-0.48013 0,-0.28596 0.56486,-0.68841 0.56485,-0.40246 0.82962,-0.40246 0.28949,0 0.28949,0.22947 0,0.12356 -0.0671,0.18711 -0.0635,0.06 -0.20829,0.10944 -0.65664,0.24006 -0.87552,0.49071 z m 0.37422,0.73078 z m -4.75888,3.95397 q 0.61074,-0.29302 1.22855,-0.88611 0.61781,-0.5931 0.91082,-1.26033 0.1271,-0.28243 0.38481,-0.28243 0.14121,0 0.22594,0.0741 0.0847,0.0741 0.0847,0.20829 0,0.38127 -0.58604,1.08381 -0.5825,0.699 -1.39801,1.23208 -0.81197,0.52955 -1.2921,0.52955 -0.14827,0 -0.24006,-0.0847 -0.0918,-0.0847 -0.0918,-0.19417 0,-0.18358 0.15887,-0.49425 0.31067,-0.60721 0.31067,-1.18619 0,-0.19064 -0.0847,-0.42364 -0.06,-0.16945 -0.06,-0.2683 0,-0.13062 0.0812,-0.21888 0.0847,-0.0918 0.24359,-0.0918 0.46954,0 0.46954,0.90376 0,0.83316 -0.34597,1.35918 z m 0.94612,-3.2479 z m 1.24621,4.29994 z m -6.31576,-4.56825 q 0.22594,0.18005 0.7449,0.233 0.27537,0.0283 0.27537,0.24007 0,0.11297 -0.0812,0.1871 -0.0777,0.0706 -0.20829,0.0706 -0.32832,0 -0.79785,-0.17652 -0.46601,-0.18004 -0.46601,-0.48012 0,-0.28596 0.56486,-0.68841 0.56485,-0.40246 0.82962,-0.40246 0.28949,0 0.28949,0.22947 0,0.12356 -0.0671,0.18711 -0.0635,0.06 -0.20829,0.10944 -0.65664,0.24006 -0.87552,0.49071 z m 0.37422,0.73078 z m -2.29824,2.4218 q -0.0989,0.0247 -0.20829,0.0247 -0.43776,0 -0.7096,-0.21888 -0.27183,-0.21888 -0.27183,-0.57898 0,-0.46247 0.39539,-0.80138 0.39893,-0.33891 0.92495,-0.33891 0.48012,0 0.75902,0.24712 0.28242,0.24359 0.28242,0.67782 0,0.45895 -0.38127,1.01321 -0.38128,0.55073 -1.27092,1.08734 -0.88611,0.53661 -1.46155,0.53661 -0.16946,0 -0.26831,-0.0847 -0.10238,-0.0847 -0.10238,-0.22594 0,-0.29302 0.46953,-0.37422 0.99203,-0.16945 1.84284,-0.96378 z m 0.5013,-1.00967 q 0,-0.33538 -0.39893,-0.33538 -0.25065,0 -0.43776,0.16946 -0.18357,0.16592 -0.18357,0.33185 0,0.31067 0.42011,0.31067 0.233,0 0.41657,-0.1624 0.18358,-0.16593 0.18358,-0.3142 z m -0.75196,-1.8746 z m 1.39448,4.6565 z m -1.41566,-5.7156 z"
       id="text1"
       style="font-weight:bold;font-size:7.23011px;font-family:Arial;-inkscape-font-specification:'Arial, Bold';text-align:center;text-anchor:middle;stroke-width:0.2;stroke-miterlimit:6.6;stroke-dashoffset:30.5643"
       transform="scale(0.84986636,1.1766556)"
       aria-label="ފަރުވ ާތެރި ވ ުމަކީ މ ުހި އ ްމ ުކަމެކ ެވ" /></g></svg>
