<svg xmlns="http://www.w3.org/2000/svg" viewBox="0 0 760 430" role="img" aria-labelledby="title desc">
  <title id="title">Loss surface and projection path</title>
  <desc id="desc">A stylized mathematical surface with a red optimization path, green projection points, and a pale perspective grid.</desc>
  <defs>
    <linearGradient id="surfaceFill" x1="72" y1="95" x2="676" y2="326" gradientUnits="userSpaceOnUse">
      <stop offset="0" stop-color="#eef6c8" />
      <stop offset="0.18" stop-color="#9ee7d7" />
      <stop offset="0.48" stop-color="#1748ad" />
      <stop offset="0.68" stop-color="#0c2d80" />
      <stop offset="0.84" stop-color="#61d5d2" />
      <stop offset="1" stop-color="#f2eebc" />
    </linearGradient>
    <linearGradient id="surfaceShade" x1="88" y1="304" x2="648" y2="124" gradientUnits="userSpaceOnUse">
      <stop offset="0" stop-color="#123a91" stop-opacity="0.72" />
      <stop offset="0.55" stop-color="#0f256e" stop-opacity="0.18" />
      <stop offset="1" stop-color="#f3edc3" stop-opacity="0.68" />
    </linearGradient>
    <filter id="softShadow" x="-15%" y="-15%" width="130%" height="140%">
      <feDropShadow dx="0" dy="18" stdDeviation="14" flood-color="#0f172a" flood-opacity="0.16" />
    </filter>
  </defs>

  <rect width="760" height="430" fill="#ffffff" />

  <g opacity="0.62" stroke="#c7d2df" stroke-width="1.1" fill="none">
    <path d="M44 72 L706 34" />
    <path d="M42 112 L710 75" />
    <path d="M39 154 L712 119" />
    <path d="M35 198 L716 166" />
    <path d="M31 244 L718 214" />
    <path d="M28 293 L722 266" />
    <path d="M24 346 L724 320" />
    <path d="M86 46 L58 360" />
    <path d="M166 42 L141 366" />
    <path d="M246 38 L226 372" />
    <path d="M326 34 L313 376" />
    <path d="M406 32 L401 378" />
    <path d="M488 30 L493 375" />
    <path d="M570 30 L587 368" />
    <path d="M650 34 L684 356" />
  </g>

  <path d="M48 291 C166 247 256 252 365 271 C474 290 575 289 713 258 L710 307 C580 343 461 349 340 326 C224 304 142 310 40 347 Z" fill="#d9d9d9" opacity="0.78" />

  <g filter="url(#softShadow)">
    <path d="M54 261
      C105 141 162 119 221 166
      C281 213 347 298 427 258
      C506 219 554 119 620 101
      C666 88 704 134 724 210
      C668 254 606 284 530 292
      C453 300 384 270 317 287
      C245 305 174 353 107 337
      C70 328 52 301 54 261 Z"
      fill="url(#surfaceFill)" stroke="#24425f" stroke-width="1.4" />
    <path d="M54 261
      C105 141 162 119 221 166
      C281 213 347 298 427 258
      C506 219 554 119 620 101
      C666 88 704 134 724 210
      C668 254 606 284 530 292
      C453 300 384 270 317 287
      C245 305 174 353 107 337
      C70 328 52 301 54 261 Z"
      fill="url(#surfaceShade)" opacity="0.55" />
  </g>

  <g stroke="#163855" stroke-width="0.85" fill="none" opacity="0.56">
    <path d="M79 237 C142 170 213 174 283 220 C352 265 427 291 501 257 C574 223 632 167 707 174" />
    <path d="M69 258 C137 203 211 207 285 238 C359 270 429 287 501 268 C579 247 646 206 718 204" />
    <path d="M66 282 C137 238 213 238 289 257 C368 276 438 284 512 278 C592 271 656 244 720 232" />
    <path d="M84 307 C151 280 225 274 300 272 C376 270 447 281 526 290 C604 299 662 285 706 270" />
    <path d="M118 185 C137 229 153 276 159 327" />
    <path d="M176 153 C198 204 211 258 218 319" />
    <path d="M236 173 C263 213 284 252 301 289" />
    <path d="M297 226 C330 239 366 254 408 271" />
    <path d="M365 280 C397 258 428 235 461 206" />
    <path d="M430 260 C459 219 489 176 523 135" />
    <path d="M500 225 C535 182 575 143 623 106" />
    <path d="M574 203 C622 188 669 184 716 196" />
  </g>

  <path d="M150 211 C214 193 254 212 283 249 C312 285 360 281 407 265 C454 249 495 269 524 293"
    fill="none" stroke="#ef1d35" stroke-width="8" stroke-linecap="round" stroke-linejoin="round" />

  <g fill="#22c55e" stroke="#ffffff" stroke-width="2.6">
    <circle cx="524" cy="293" r="8" />
    <circle cx="626" cy="182" r="8" />
  </g>
  <path d="M524 293 L626 182" stroke="#22c55e" stroke-width="4" stroke-linecap="round" />

  <g font-family="Georgia, 'Times New Roman', serif" font-style="italic" font-size="28" font-weight="600">
    <text x="238" y="266" fill="#f97316">mu</text>
    <text x="424" y="281" fill="#ffffff">Pi_mu(A)</text>
    <text x="646" y="205" fill="#2563eb">A</text>
  </g>
</svg>
